# xmcd
#
# Track frame offsets:
#	150
#	12305
#	25202
#	39687
#	51847
#	65650
#	76595
#	88192
#	101400
#	115142
#	126200
#	137952
#	149037
#	160455
#	173055
#	183290
#
# Disc length: 2612 seconds
#
# Revision: 1
# Processed by: cddbd v1.5.2PL0 Copyright (c) Steve Scherf et al.
# Submitted via: audiograbber 1.82.02
#
DISCID=df0a3210
DTITLE=Bob Wills - Take me back to Turlsa
DYEAR=2001
DGENRE=Country
TTITLE0=Take me Back to Texas
TTITLE1=Ten Years
TTITLE2=Away Out There
TTITLE3=Beaumount Rag
TTITLE4=Osage Stomp
TTITLE5=Blue Yodel No. 1
TTITLE6=Blue Bonnet Lane
TTITLE7=Spanish Two Step
TTITLE8=Basin Street Blues
TTITLE9=My Life's Been a Pleasure
TTITLE10=San Antonio Rose
TTITLE11=I'm a Ding Dong Daddy
TTITLE12=Got a Letter From my Kid
TTITLE13=WIlliam Tell
TTITLE14=My Window Faces the South
TTITLE15=Crippled Turkey
EXTD=
EXTT0=
EXTT1=
EXTT2=
EXTT3=
EXTT4=
EXTT5=
EXTT6=
EXTT7=
EXTT8=
EXTT9=
EXTT10=
EXTT11=
EXTT12=
EXTT13=
EXTT14=
EXTT15=
PLAYORDER=
